<?xml version="1.0" encoding="utf-8"?>
<svg version="1.1" xmlns="http://www.w3.org/2000/svg" viewBox="0 0 64 64">
  <path d="M 20,32 L 19,33 L 19,34 L 20,35 L 20,36 L 20,37 L 21,38 L 21,39 L 22,40 L 22,41 L 23,42 L 23,43 L 24,44 L 25,44 L 26,44 L 27,44 L 28,44 L 29,45 L 30,46 L 29,47 L 28,48 L 27,49 L 26,49 L 25,49 L 24,49 L 23,49 L 22,49 L 21,49 L 20,49 L 19,49 L 18,50 L 17,50 L 16,50 L 15,50 L 14,50 L 13,50 L 12,50 L 11,51 L 10,51 L 10,52 L 11,53 L 12,53 L 13,53 L 14,53 L 15,53 L 16,52 L 17,52 L 18,52 L 19,51 L 20,51 L 21,51 L 22,50 L 23,50 L 24,50 L 25,50 L 26,49 L 27,49 L 28,49 L 29,50 L 30,51 L 30,52 L 31,53 L 31,54 L 31,55 L 31,56 L 31,57 L 31,58 L 32,59 L 32,60 L 32,61 L 33,60 L 34,59 L 34,58 L 34,57 L 34,56 L 33,56 L 32,55 L 31,54 L 31,53 L 31,52 L 31,51 L 31,50 L 31,49 L 31,48 L 31,47 L 31,46 L 31,45 L 31,44 L 31,43 L 31,42 L 30,42 L 29,42 L 28,42 L 27,42 L 26,41 L 25,40 L 26,39 L 27,38 L 28,38 L 29,37 L 30,37 L 31,36 L 30,36 L 29,36 L 28,36 L 27,36 L 26,36 L 25,36 L 24,35 L 23,34 L 23,33 L 22,32 L 21,32 Z" fill="none" stroke="black" stroke-width="1" />
  <path d="M 37,29 L 36,30 L 35,30 L 34,30 L 33,30 L 32,30 L 31,30 L 30,31 L 29,31 L 29,32 L 30,32 L 31,32 L 32,32 L 33,32 L 34,31 L 35,31 L 36,30 L 37,30 L 38,30 L 39,29 L 40,29 L 41,30 L 41,31 L 41,32 L 41,33 L 42,33 L 43,33 L 44,33 L 45,33 L 46,33 L 46,32 L 46,31 L 46,30 L 45,29 L 44,29 L 43,29 L 42,29 L 41,29 L 40,29 L 39,29 L 38,29 Z" fill="none" stroke="black" stroke-width="1" />
  <path d="M 27,5 L 27,6 L 28,7 L 29,8 L 30,9 L 30,10 L 30,11 L 29,12 L 28,12 L 27,12 L 26,12 L 25,12 L 24,13 L 23,13 L 22,13 L 21,13 L 20,13 L 19,14 L 20,15 L 21,15 L 22,15 L 23,15 L 24,15 L 25,14 L 26,14 L 27,14 L 28,13 L 29,13 L 30,13 L 31,13 L 32,13 L 33,13 L 34,12 L 35,12 L 36,13 L 37,14 L 37,15 L 37,16 L 36,17 L 36,18 L 35,19 L 35,20 L 35,21 L 34,22 L 33,23 L 32,24 L 31,24 L 30,24 L 29,24 L 28,24 L 27,23 L 27,22 L 27,21 L 26,20 L 25,19 L 24,18 L 23,18 L 22,18 L 21,18 L 20,18 L 20,19 L 20,20 L 21,21 L 22,22 L 23,23 L 23,24 L 22,25 L 21,25 L 20,25 L 19,26 L 18,26 L 17,26 L 16,26 L 15,27 L 14,27 L 13,28 L 14,29 L 15,29 L 16,29 L 17,29 L 18,29 L 19,28 L 20,28 L 21,28 L 22,27 L 23,27 L 24,27 L 25,27 L 26,26 L 27,26 L 28,26 L 29,25 L 30,25 L 31,25 L 32,25 L 33,24 L 34,24 L 35,24 L 36,24 L 37,25 L 38,25 L 39,25 L 40,24 L 41,25 L 42,25 L 43,25 L 44,25 L 45,25 L 46,25 L 47,25 L 48,25 L 49,25 L 50,25 L 51,26 L 52,26 L 53,25 L 53,24 L 52,23 L 51,23 L 50,22 L 49,22 L 48,22 L 47,22 L 46,22 L 45,23 L 44,23 L 43,23 L 42,23 L 41,23 L 40,23 L 39,23 L 38,22 L 38,21 L 39,20 L 40,19 L 41,18 L 42,18 L 43,17 L 43,16 L 43,15 L 43,14 L 43,13 L 44,12 L 45,11 L 44,10 L 43,10 L 42,10 L 41,10 L 40,10 L 39,10 L 38,10 L 37,9 L 36,8 L 36,7 L 35,7 L 34,6 L 33,6 L 32,5 L 31,5 L 30,5 L 29,5 L 28,5 Z" fill="none" stroke="black" stroke-width="1" />
</svg>