<?xml version="1.0" encoding="utf-8"?>
<svg version="1.1" xmlns="http://www.w3.org/2000/svg" viewBox="0 0 64 64">
  <path d="M 27,4 L 26,5 L 26,6 L 27,7 L 28,7 L 29,8 L 30,9 L 31,10 L 30,11 L 29,12 L 28,12 L 27,12 L 26,12 L 25,12 L 24,13 L 23,13 L 22,13 L 21,13 L 20,13 L 19,13 L 19,14 L 19,15 L 20,15 L 21,16 L 22,17 L 21,18 L 20,19 L 20,20 L 21,21 L 22,22 L 23,23 L 22,24 L 21,25 L 20,25 L 19,26 L 18,26 L 17,26 L 16,26 L 15,26 L 14,27 L 13,27 L 13,28 L 13,29 L 14,29 L 15,29 L 16,29 L 17,29 L 18,29 L 19,28 L 20,28 L 21,27 L 22,27 L 23,27 L 24,27 L 25,27 L 26,26 L 27,26 L 28,26 L 29,25 L 30,25 L 31,25 L 32,25 L 33,25 L 34,25 L 35,24 L 36,24 L 37,24 L 38,25 L 39,26 L 38,27 L 37,28 L 36,29 L 35,29 L 34,30 L 33,30 L 32,30 L 31,30 L 30,30 L 29,30 L 28,31 L 27,32 L 26,32 L 25,32 L 24,32 L 25,33 L 26,33 L 27,33 L 28,33 L 29,33 L 30,32 L 31,31 L 32,31 L 33,31 L 34,31 L 35,31 L 36,31 L 37,31 L 38,30 L 39,30 L 40,30 L 41,30 L 42,30 L 43,31 L 44,32 L 44,33 L 43,34 L 43,35 L 43,36 L 42,37 L 42,38 L 42,39 L 43,40 L 42,41 L 41,42 L 42,42 L 42,41 L 43,40 L 44,39 L 44,38 L 45,37 L 45,36 L 46,35 L 46,34 L 46,33 L 47,32 L 47,31 L 48,30 L 49,29 L 50,29 L 51,30 L 52,30 L 53,30 L 54,30 L 55,30 L 56,30 L 57,30 L 58,30 L 59,30 L 60,30 L 61,30 L 62,29 L 63,28 L 63,27 L 63,26 L 63,25 L 63,24 L 63,23 L 63,22 L 63,21 L 63,20 L 63,19 L 63,18 L 63,17 L 63,16 L 63,15 L 63,14 L 63,13 L 63,12 L 63,11 L 63,10 L 63,9 L 63,8 L 62,7 L 61,6 L 60,6 L 59,6 L 58,6 L 57,6 L 56,6 L 55,6 L 54,6 L 53,6 L 52,6 L 51,6 L 50,6 L 49,6 L 48,6 L 47,6 L 46,6 L 45,6 L 44,6 L 43,6 L 42,6 L 41,6 L 40,6 L 39,6 L 40,7 L 39,8 L 38,9 L 37,8 L 36,7 L 35,7 L 34,6 L 33,6 L 32,5 L 31,5 L 30,5 L 29,4 L 28,4 Z" fill="none" stroke="black" stroke-width="1" />
</svg>