<?xml version="1.0" encoding="utf-8"?>
<svg version="1.1" xmlns="http://www.w3.org/2000/svg" viewBox="0 0 64 64">
  <path d="M 41,28 L 40,29 L 39,29 L 38,29 L 37,29 L 36,29 L 35,30 L 34,30 L 33,30 L 32,30 L 31,30 L 30,31 L 29,31 L 28,31 L 28,32 L 29,32 L 30,33 L 31,32 L 32,32 L 33,32 L 34,31 L 35,31 L 36,30 L 37,30 L 38,30 L 39,29 L 40,29 L 41,29 L 42,30 L 41,31 L 41,32 L 41,33 L 40,34 L 40,35 L 40,36 L 39,37 L 39,38 L 38,39 L 38,40 L 37,41 L 36,41 L 35,41 L 34,41 L 33,41 L 32,42 L 31,42 L 30,42 L 29,42 L 28,42 L 27,43 L 26,42 L 25,41 L 25,40 L 25,39 L 26,38 L 27,38 L 28,38 L 29,37 L 30,37 L 31,37 L 32,37 L 33,36 L 34,36 L 33,36 L 32,36 L 31,36 L 30,36 L 29,36 L 28,36 L 27,36 L 26,37 L 25,37 L 24,36 L 24,35 L 23,34 L 23,33 L 22,32 L 21,32 L 20,32 L 19,32 L 19,33 L 19,34 L 20,35 L 20,36 L 20,37 L 21,38 L 21,39 L 22,40 L 22,41 L 23,42 L 23,43 L 24,44 L 25,44 L 26,44 L 27,44 L 28,44 L 29,45 L 30,46 L 30,47 L 29,48 L 28,48 L 27,49 L 26,49 L 25,49 L 24,49 L 23,49 L 22,49 L 21,49 L 20,49 L 19,49 L 18,50 L 17,50 L 16,50 L 15,50 L 14,50 L 13,50 L 12,50 L 11,51 L 10,51 L 9,51 L 9,52 L 10,53 L 11,53 L 12,53 L 13,53 L 14,53 L 15,53 L 16,52 L 17,52 L 18,52 L 19,51 L 20,51 L 21,51 L 22,50 L 23,50 L 24,50 L 25,50 L 26,50 L 27,49 L 28,49 L 29,49 L 30,50 L 30,51 L 30,52 L 30,53 L 31,54 L 31,55 L 31,56 L 31,57 L 31,58 L 32,59 L 32,60 L 32,61 L 32,62 L 33,61 L 33,60 L 34,59 L 34,58 L 35,57 L 35,56 L 35,55 L 35,54 L 35,53 L 35,52 L 35,51 L 36,50 L 36,49 L 37,48 L 38,48 L 39,48 L 40,48 L 41,48 L 42,47 L 43,47 L 44,47 L 45,47 L 46,47 L 47,47 L 48,47 L 49,47 L 50,47 L 51,47 L 51,46 L 50,46 L 49,46 L 48,45 L 47,46 L 46,45 L 45,46 L 44,46 L 43,46 L 42,46 L 41,46 L 40,47 L 39,47 L 38,47 L 37,47 L 36,46 L 35,45 L 35,44 L 34,43 L 35,42 L 36,42 L 37,42 L 38,43 L 39,43 L 40,43 L 41,42 L 42,41 L 43,40 L 44,39 L 44,38 L 45,37 L 45,36 L 46,35 L 46,34 L 46,33 L 47,32 L 47,31 L 46,30 L 45,29 L 44,29 L 43,28 L 42,28 Z" fill="none" stroke="black" stroke-width="1" />
  <path d="M 28,4 L 27,5 L 26,5 L 26,6 L 27,6 L 28,7 L 29,8 L 30,9 L 31,10 L 30,11 L 29,12 L 28,12 L 27,12 L 26,12 L 25,12 L 24,13 L 23,13 L 22,13 L 21,13 L 20,13 L 19,13 L 19,14 L 19,15 L 20,15 L 21,15 L 22,15 L 23,15 L 24,15 L 25,14 L 26,14 L 27,14 L 28,14 L 29,13 L 30,13 L 31,13 L 32,13 L 33,13 L 34,12 L 35,12 L 36,12 L 37,12 L 38,13 L 38,14 L 37,15 L 37,16 L 36,17 L 36,18 L 35,19 L 35,20 L 35,21 L 35,22 L 34,23 L 33,23 L 32,24 L 31,24 L 30,24 L 29,24 L 28,24 L 27,24 L 26,23 L 27,22 L 27,21 L 27,20 L 26,19 L 25,19 L 24,18 L 23,18 L 22,18 L 21,18 L 20,18 L 20,19 L 20,20 L 21,21 L 22,22 L 23,22 L 24,23 L 24,24 L 23,25 L 22,25 L 21,25 L 20,25 L 19,26 L 18,26 L 17,26 L 16,26 L 15,27 L 14,27 L 13,27 L 12,28 L 13,29 L 14,29 L 15,29 L 16,29 L 17,29 L 18,29 L 19,28 L 20,28 L 21,27 L 22,27 L 23,27 L 24,27 L 25,27 L 26,26 L 27,26 L 28,26 L 29,25 L 30,25 L 31,25 L 32,25 L 33,25 L 34,24 L 35,24 L 36,24 L 37,25 L 38,25 L 39,24 L 40,24 L 41,24 L 42,24 L 43,25 L 44,25 L 44,24 L 44,23 L 43,23 L 42,23 L 41,23 L 40,23 L 39,23 L 38,23 L 37,23 L 36,22 L 37,21 L 38,20 L 39,20 L 40,19 L 41,18 L 42,18 L 43,17 L 43,16 L 43,15 L 42,14 L 42,13 L 43,12 L 44,12 L 44,11 L 44,10 L 43,10 L 42,10 L 41,10 L 40,10 L 39,10 L 38,10 L 37,9 L 37,8 L 36,7 L 35,7 L 34,6 L 33,6 L 32,5 L 31,5 L 30,5 L 29,5 Z" fill="none" stroke="black" stroke-width="1" />
</svg>